{
.appVersion = "3151";
.formatVersion = 3;
DisplayStrings = (
a
);
customParameters = (
{
name = vendorID;
value = COMM;
},
{
name = panose;
value = (
2,
13,
8,
4,
3,
5,
2,
12,
2,
3
);
},
{
name = unicodeRanges;
value = (
0,
1,
2
);
},
{
name = codePageRanges;
value = (
"1252",
"1250",
"1254",
"1257",
"bit 29"
);
},
{
name = fsType;
value = (
2
);
},
{
name = glyphOrder;
value = (
.notdef,
Eth,
eth,
Lslash,
lslash,
Scaron,
scaron,
Yacute,
yacute,
Thorn,
thorn,
Zcaron,
zcaron,
onehalf,
onequarter,
onesuperior,
threequarters,
threesuperior,
twosuperior,
brokenbar,
minus,
multiply,
space,
exclam,
quotedbl,
numbersign,
dollar,
percent,
ampersand,
quotesingle,
parenleft,
parenright,
asterisk,
plus,
comma,
hyphen,
period,
slash,
zero,
one,
two,
three,
four,
five,
six,
seven,
eight,
nine,
colon,
semicolon,
less,
equal,
greater,
question,
at,
A,
B,
C,
D,
E,
F,
G,
H,
I,
J,
K,
L,
M,
N,
O,
P,
Q,
R,
S,
T,
U,
V,
W,
X,
Y,
Z,
bracketleft,
backslash,
bracketright,
asciicircum,
underscore,
grave,
a,
b,
c,
d,
e,
f,
g,
h,
i,
j,
k,
l,
m,
n,
o,
p,
q,
r,
s,
t,
u,
v,
w,
x,
y,
z,
braceleft,
bar,
braceright,
asciitilde,
Adieresis,
Aring,
Ccedilla,
Eacute,
Ntilde,
Odieresis,
Udieresis,
aacute,
agrave,
acircumflex,
adieresis,
atilde,
aring,
ccedilla,
eacute,
egrave,
ecircumflex,
edieresis,
iacute,
igrave,
icircumflex,
idieresis,
ntilde,
oacute,
ograve,
ocircumflex,
odieresis,
otilde,
uacute,
ugrave,
ucircumflex,
udieresis,
dagger,
degree,
cent,
sterling,
section,
bullet,
paragraph,
germandbls,
registered,
copyright,
trademark,
acute,
dieresis,
notequal,
AE,
Oslash,
infinity,
plusminus,
lessequal,
greaterequal,
yen,
mu,
partialdiff,
summation,
product,
pi,
integral,
ordfeminine,
ordmasculine,
Omega,
ae,
oslash,
questiondown,
exclamdown,
logicalnot,
radical,
florin,
approxequal,
Delta,
guillemotleft,
guillemotright,
ellipsis,
uni00A0,
Agrave,
Atilde,
Otilde,
OE,
oe,
endash,
emdash,
quotedblleft,
quotedblright,
quoteleft,
quoteright,
divide,
lozenge,
ydieresis,
Ydieresis,
fraction,
Euro,

glyphs = (
{
glyphname = zero;
kernLeft = zero;
kernRight = zero;
lastChange = "2023-04-04 19:32:53 +0000";
layers = (
{
hints = (
{
horizontal = 1;
place = (-16, 131);
place = (-16, 131);
type = Stem;
},
{
horizontal = 1;
place = (570, 130);
place = (570, 130);
type = Stem;
},
{
place = (33, 169);
place = (33, 169);
type = Stem;
},
{
place = (473, 169);
place = (473, 169);
type = Stem;
}
);
layerId = m01;
shapes = (
{
closed = 1;
nodes = (
(156,700,o),
(33,485,o),
(33,273,cs),
(33,95,o),
(137,-16,o),
(302,-16,cs),
(531,-16,o),
(642,201,o),
(642,412,cs),
(642,591,o),
(538,700,o),
(378,700,cs)
);
},
{
closed = 1;
nodes = (
(454,570,o),
(473,495,o),
(473,424,cs),
(473,311,o),
(434,115,o),
(306,115,cs),
(222,115,o),
(202,185,o),
(202,258,cs),
(202,366,o),
(242,570,o),
(371,570,cs)
);
}
);
width = 643;
}
);
note = zero;
unicode = 48;
},
{
glyphname = one;
kernLeft = one;
kernRight = one;
lastChange = "2023-04-03 23:39:18 +0000";
layers = (
{
hints = (
{
horizontal = 1;
place = (0, 21);
target = up;
type = BottomGhost;
},
{
horizontal = 1;
place = (438, 114);
place = (438, 114);
type = Stem;
},
{
horizontal = 1;
place = (691, -20);
target = down;
type = TopGhost;
},
{
place = (52, 360);
place = (52, 360);
type = Stem;
}
);
layerId = m01;
shapes = (
{
closed = 1;
nodes = (
(245,593,o),
(173,555,o),
(74,552,c),
(52,438,l),
(100,438,o),
(148,438,o),
(196,438,c),
(112,0,l),
(278,0,l),
(412,691,l),
(281,691,l)
);
}
);
width = 391;
}
);
note = one;
unicode = 49;
},
{
glyphname = two;
kernLeft = two;
kernRight = two;
lastChange = "2023-04-04 06:39:48 +0000";
layers = (
{
hints = (
{
horizontal = 1;
place = (0, 138);
place = (0, 138);
type = Stem;
},
{
horizontal = 1;
place = (564, 135);
place = (564, 135);
type = Stem;
},
{
place = (412, 169);
place = (412, 169);
type = Stem;
}
);
layerId = m01;
shapes = (
{
closed = 1;
nodes = (
(216,431,l),
(228,506,o),
(262,564,o),
(337,564,cs),
(386,564,o),
(412,534,o),
(412,488,cs),
(412,402,o),
(315,359,o),
(254,323,cs),
(129,249,o),
(2,181,o),
(-29,0,c),
(490,0,l),
(516,138,l),
(216,138,l),
(266,187,o),
(349,223,o),
(423,269,cs),
(508,320,o),
(581,382,o),
(581,500,cs),
(581,635,o),
(473,699,o),
(348,699,cs),
(212,699,o),
(85,633,o),
(59,431,c)
);
}
);
width = 571;
}
);
note = two;
unicode = 50;
},
{
glyphname = three;
kernLeft = three;
kernRight = three;
lastChange = "2023-04-03 23:52:50 +0000";
layers = (
{
hints = (
{
horizontal = 1;
place = (-16, 128);
place = (-16, 128);
type = Stem;
},
{
horizontal = 1;
place = (299, 116);
place = (299, 116);
type = Stem;
},
{
horizontal = 1;
place = (574, 125);
place = (574, 125);
type = Stem;
},
{
place = (12, 159);
place = (12, 159);
type = Stem;
},
{
place = (391, 168);
place = (391, 168);
type = Stem;
},
{
place = (420, 164);
place = (420, 164);
type = Stem;
}
);
layerId = m01;
shapes = (
{
closed = 1;
nodes = (
(220,468,l),
(231,530,o),
(268,574,o),
(336,574,cs),
(388,574,o),
(420,544,o),
(420,500,cs),
(420,439,o),
(370,415,o),
(315,415,cs),
(271,415,l),
(249,299,l),
(278,299,ls),
(353,299,o),
(391,266,o),
(391,211,cs),
(391,150,o),
(346,112,o),
(284,112,cs),
(199,112,o),
(168,166,o),
(171,237,c),
(12,237,l),
(0,78,o),
(112,-16,o),
(282,-16,cs),
(434,-16,o),
(559,68,o),
(559,210,cs),
(559,291,o),
(512,336,o),
(459,356,c),
(459,358,l),
(537,384,o),
(584,439,o),
(584,518,cs),
(584,642,o),
(472,699,o),
(343,699,cs),
(188,699,o),
(80,607,o),
(62,468,c)
);
}
);
width = 589;
}
);
note = three;
unicode = 51;
},
{
glyphname = four;
kernLeft = four;
kernRight = four;
lastChange = "2023-04-04 17:11:00 +0000";
layers = (
{
hints = (
{
horizontal = 1;
place = (0, 21);
target = up;
type = BottomGhost;
},
{
horizontal = 1;
place = (153, 127);
place = (153, 127);
type = Stem;
},
{
horizontal = 1;
place = (692, -20);
target = down;
type = TopGhost;
},
{
place = (-1, 598);
place = (-1, 598);
type = Stem;
}
);
layerId = m01;
shapes = (
{
closed = 1;
nodes = (
(-1,153,l),
(314,153,l),
(285,0,l),
(445,0,l),
(474,153,l),
(572,153,l),
(597,280,l),
(499,280,l),
(579,692,l),
(417,692,l),
(30,307,l)
);
},
{
closed = 1;
nodes = (
(383,509,l),
(339,280,l),
(156,280,l)
);
}
);
width = 610;
}
);
note = four;
unicode = 52;
},
{
glyphname = five;
kernLeft = five;
kernRight = five;
lastChange = "2023-04-04 01:36:33 +0000";
layers = (
{
hints = (
{
horizontal = 1;
place = (-16, 134);
place = (-16, 134);
type = Stem;
},
{
horizontal = 1;
place = (349, 120);
place = (349, 120);
type = Stem;
},
{
horizontal = 1;
place = (550, 135);
place = (550, 135);
type = Stem;
},
{
place = (394, 170);
place = (394, 170);
type = Stem;
},
{
horizontal = 1;
place = (306, 119);
place = (306, 119);
type = Stem;
}
);
layerId = m01;
shapes = (
{
closed = 1;
nodes = (
(158,685,l),
(46,306,l),
(198,306,l),
(221,332,o),
(255,349,o),
(295,349,cs),
(360,349,o),
(394,307,o),
(394,248,cs),
(394,170,o),
(342,118,o),
(272,118,cs),
(209,118,o),
(168,153,o),
(164,205,c),
(1,205,l),
(6,50,o),
(128,-16,o),
(268,-16,cs),
(441,-16,o),
(564,95,o),
(564,260,cs),
(564,389,o),
(483,469,o),
(360,469,cs),
(298,469,o),
(252,449,o),
(225,425,c),
(222,425,l),
(260,550,l),
(570,550,l),
(596,685,l)
);
}
);
width = 588;
}
);
note = five;
unicode = 53;
},
{
glyphname = six;
kernLeft = six;
kernRight = six;
lastChange = "2023-04-04 01:38:57 +0000";
layers = (
{
hints = (
{
horizontal = 1;
place = (-16, 125);
place = (-16, 125);
type = Stem;
},
{
horizontal = 1;
place = (348, 123);
place = (348, 123);
type = Stem;
},
{
horizontal = 1;
place = (580, 119);
place = (580, 119);
type = Stem;
},
{
place = (31, 159);
place = (31, 159);
type = Stem;
},
{
place = (423, 159);
place = (423, 159);
type = Stem;
}
);
layerId = m01;
shapes = (
{
closed = 1;
nodes = (
(601,650,o),
(498,699,o),
(382,699,cs),
(155,699,o),
(31,485,o),
(31,258,cs),
(30,83,o),
(135,-16,o),
(296,-16,cs),
(458,-15,o),
(582,93,o),
(582,256,cs),
(583,392,o),
(482,471,o),
(374,471,cs),
(306,471,o),
(255,444,o),
(217,405,c),
(215,405,l),
(242,511,o),
(295,580,o),
(372,580,cs),
(420,580,o),
(450,557,o),
(454,516,c),
(612,516,l)
);
},
{
closed = 1;
nodes = (
(386,348,o),
(423,303,o),
(423,243,cs),
(423,161,o),
(367,109,o),
(295,109,cs),
(231,109,o),
(190,152,o),
(190,215,cs),
(190,295,o),
(248,348,o),
(319,348,cs)
);
}
);
width = 603;
}
);
note = six;
unicode = 54;
},
{
glyphname = seven;
kernLeft = seven;
kernRight = seven;
lastChange = "2023-04-04 01:42:53 +0000";
layers = (
{
hints = (
{
horizontal = 1;
place = (0, 21);
target = up;
type = BottomGhost;
},
{
horizontal = 1;
place = (543, 142);
place = (543, 142);
type = Stem;
},
{
place = (71, 528);
place = (71, 528);
type = Stem;
}
);
layerId = m01;
shapes = (
{
closed = 1;
nodes = (
(73,543,l),
(392,543,l),
(278,441,o),
(124,247,o),
(71,0,c),
(245,0,l),
(294,235,o),
(432,435,o),
(574,557,c),
(599,685,l),
(100,685,l)
);
}
);
width = 536;
}
);
note = seven;
unicode = 55;
},
{
glyphname = eight;
kernLeft = eight;
kernRight = eight;
lastChange = "2023-04-04 18:15:18 +0000";
layers = (
{
hints = (
{
horizontal = 1;
place = (-16, 124);
place = (-16, 124);
type = Stem;
},
{
horizontal = 1;
place = (310, 106);
place = (310, 106);
type = Stem;
},
{
horizontal = 1;
place = (583, 116);
place = (583, 116);
type = Stem;
},
{
place = (7, 166);
place = (7, 166);
type = Stem;
},
{
place = (408, 164);
place = (408, 164);
type = Stem;
},
{
place = (88, 154);
place = (88, 154);
type = Stem;
},
{
place = (442, 156);
place = (442, 156);
type = Stem;
}
);
layerId = m01;
shapes = (
{
closed = 1;
nodes = (
(214,699,o),
(88,626,o),
(88,495,cs),
(88,446,o),
(109,401,o),
(155,374,c),
(155,371,l),
(67,342,o),
(7,284,o),
(7,185,cs),
(6,39,o),
(152,-16,o),
(281,-16,cs),
(432,-16,o),
(572,58,o),
(572,212,cs),
(572,275,o),
(542,330,o),
(484,358,c),
(484,361,l),
(556,393,o),
(598,445,o),
(598,519,cs),
(598,647,o),
(472,699,o),
(351,699,cs)
);
},
{
closed = 1;
nodes = (
(359,310,o),
(407,278,o),
(408,218,cs),
(408,146,o),
(351,109,o),
(287,108,cs),
(222,108,o),
(173,141,o),
(173,201,cs),
(173,275,o),
(237,310,o),
(297,310,cs)
);
},
{
closed = 1;
nodes = (
(402,583,o),
(441,554,o),
(442,504,cs),
(442,441,o),
(393,416,o),
(338,416,cs),
(282,416,o),
(241,440,o),
(242,494,cs),
(242,556,o),
(295,583,o),
(348,583,cs)
);
}
);
width = 599;
}
);
note = eight;
unicode = 56;
},
{
glyphname = nine;
kernLeft = nine;
kernRight = nine;
lastChange = "2023-04-04 02:04:04 +0000";
layers = (
{
hints = (
{
horizontal = 1;
place = (-16, 120);
place = (-16, 120);
type = Stem;
},
{
horizontal = 1;
place = (213, 124);
place = (213, 124);
type = Stem;
},
{
horizontal = 1;
place = (575, 124);
place = (575, 124);
type = Stem;
},
{
place = (53, 162);
place = (53, 162);
type = Stem;
},
{
place = (450, 158);
place = (450, 158);
type = Stem;
}
);
layerId = m01;
shapes = (
{
closed = 1;
nodes = (
(335,213,o),
(384,243,o),
(424,279,c),
(398,166,o),
(351,104,o),
(268,104,cs),
(217,104,o),
(185,131,o),
(180,170,c),
(20,170,l),
(30,35,o),
(142,-16,o),
(260,-16,cs),
(505,-16,o),
(608,196,o),
(608,431,cs),
(608,611,o),
(500,699,o),
(343,699,cs),
(183,699,o),
(53,591,o),
(53,422,cs),
(53,289,o),
(151,213,o),
(268,213,cs)
);
},
{
closed = 1;
nodes = (
(255,337,o),
(214,378,o),
(215,441,cs),
(215,521,o),
(270,575,o),
(343,575,cs),
(410,575,o),
(450,531,o),
(450,468,cs),
(450,386,o),
(392,337,o),
(321,337,cs)
);
}
);
width = 607;
}
);
note = nine;
unicode = 57;
},
{
glyphname = A;
kernLeft = A;
kernRight = A;
lastChange = "2023-04-04 19:53:55 +0000";
layers = (
{
hints = (
{
horizontal = 1;
place = (0, 21);
target = up;
type = BottomGhost;
},
{
horizontal = 1;
place = (130, 126);
place = (130, 126);
type = Stem;
},
{
horizontal = 1;
place = (715, -20);
target = down;
type = TopGhost;
},
{
place = (-52, 681);
place = (-52, 681);
type = Stem;
}
);
layerId = m01;
shapes = (
{
closed = 1;
nodes = (
(-52,0,l),
(125,0,l),
(188,130,l),
(430,130,l),
(448,0,l),
(629,0,l),
(504,715,l),
(326,715,l)
);
},
{
closed = 1;
nodes = (
(414,256,l),
(250,256,l),
(380,531,l)
);
}
);
width = 676;
}
);
note = A;
unicode = 65;
},
{
glyphname = B;
lastChange = "2023-04-04 19:53:59 +0000";
layers = (
{
hints = (
{
horizontal = 1;
place = (0, 141);
place = (0, 141);
type = Stem;
},
{
horizontal = 1;
place = (312, 119);
place = (312, 119);
type = Stem;
},
{
horizontal = 1;
place = (577, 138);
place = (577, 138);
type = Stem;
},
{
place = (464, 171);
place = (464, 171);
type = Stem;
},
{
place = (490, 169);
place = (490, 169);
type = Stem;
}
);
layerId = m01;
shapes = (
{
closed = 1;
nodes = (
(-2,0,l),
(361,0,ls),
(517,0,o),
(635,89,o),
(635,231,cs),
(635,305,o),
(597,354,o),
(534,379,c),
(611,405,o),
(659,462,o),
(659,541,cs),
(659,660,o),
(567,715,o),
(442,715,cs),
(136,715,l)
);
},
{
closed = 1;
nodes = (
(417,577,ls),
(465,577,o),
(490,551,o),
(490,513,cs),
(490,449,o),
(441,431,o),
(396,431,cs),
(254,431,l),
(282,577,l)
);
},
{
closed = 1;
nodes = (
(378,312,ls),
(428,312,o),
(464,286,o),
(464,235,cs),
(464,170,o),
(418,141,o),
(356,141,cs),
(198,141,l),
(231,312,l)
);
}
);
width = 657;
}
);
note = B;
unicode = 66;
},
{
glyphname = C;
kernLeft = C;
kernRight = C;
lastChange = "2023-04-04 02:17:59 +0000";
layers = (
{
hints = (
{
horizontal = 1;
place = (-16, 144);
place = (-16, 144);
type = Stem;
},
{
horizontal = 1;
place = (583, 146);
place = (583, 146);
type = Stem;
},
{
place = (32, 178);
place = (32, 178);
type = Stem;
}
);
layerId = m01;
shapes = (
{
closed = 1;
nodes = (
(694,643,o),
(590,729,o),
(417,729,cs),
(178,729,o),
(32,519,o),
(32,295,cs),
(32,102,o),
(152,-16,o),
(345,-16,cs),
(534,-16,o),
(643,93,o),
(677,248,c),
(502,248,l),
(481,171,o),
(426,128,o),
(351,128,cs),
(246,128,o),
(210,209,o),
(210,299,cs),
(210,432,o),
(270,583,o),
(410,583,cs),
(488,583,o),
(526,541,o),
(530,469,c),
(704,469,l)
);
}
);
width = 690;
}
);
note = C;
unicode = 67;
},
{
glyphname = D;
kernRight = Eth;
lastChange = "2023-04-04 19:54:03 +0000";
layers = (
{
hints = (
{
horizontal = 1;
place = (0, 148);
place = (0, 148);
type = Stem;
},
{
horizontal = 1;
place = (568, 147);
place = (568, 147);
type = Stem;
},
{
place = (516, 178);
place = (516, 178);
type = Stem;
}
);
layerId = m01;
shapes = (
{
closed = 1;
nodes = (
(-2,0,l),
(310,0,ls),
(538,0,o),
(694,147,o),
(694,410,cs),
(694,607,o),
(573,715,o),
(392,715,cs),
(136,715,l)
);
},
{
closed = 1;
nodes = (
(365,568,ls),
(464,568,o),
(516,510,o),
(516,401,cs),
(516,248,o),
(442,148,o),
(310,148,cs),
(201,148,l),
(282,568,l)
);
}
);
width = 689;
}
);
note = D;
unicode = 68;
},
{
glyphname = E;
kernRight = E;
layers = (
{
hints = (
{
horizontal = 1;
place = (0, 149);
place = (0, 149);
type = Stem;
},
{
horizontal = 1;
place = (304, 136);
place = (304, 136);
type = Stem;
},
{
horizontal = 1;
place = (571, 144);
place = (571, 144);
type = Stem;
},
{
place = (-2, 657);
place = (-2, 657);
type = Stem;
}
);
layerId = m01;
shapes = (
{
closed = 1;
nodes = (
(-2,0,l),
(528,0,l),
(557,149,l),
(201,149,l),
(231,304,l),
(528,304,l),
(554,440,l),
(258,440,l),
(283,571,l),
(627,571,l),
(655,715,l),
(136,715,l)
);
}
);
width = 608;
}
);
note = E;
unicode = 69;
},
{
glyphname = F;
kernRight = F;
layers = (
{
hints = (
{
horizontal = 1;
place = (0, 21);
target = up;
type = BottomGhost;
},
{
horizontal = 1;
place = (279, 142);
place = (279, 142);
type = Stem;
},
{
horizontal = 1;
place = (567, 148);
place = (567, 148);
type = Stem;
},
{
place = (-2, 651);
place = (-2, 651);
type = Stem;
}
);
layerId = m01;
shapes = (
{
closed = 1;
nodes = (
(-2,0,l),
(173,0,l),
(226,279,l),
(515,279,l),
(543,421,l),
(254,421,l),
(282,567,l),
(621,567,l),
(649,715,l),
(136,715,l)
);
}
);
width = 582;
}
);
note = F;
unicode = 70;
},
{
glyphname = G;
kernLeft = C;
kernRight = G;
lastChange = "2023-04-04 20:00:35 +0000";
layers = (
{
hints = (
{
horizontal = 1;
place = (-16, 142);
place = (-16, 142);
type = Stem;
},
{
horizontal = 1;
place = (255, 129);
place = (255, 129);
type = Stem;
},
{
horizontal = 1;
place = (584, 145);
place = (584, 145);
type = Stem;
},
{
place = (31, 179);
place = (31, 179);
type = Stem;
},
{
horizontal = 1;
place = (0, 21);
target = up;
type = BottomGhost;
}
);
layerId = m01;
shapes = (
{
closed = 1;
nodes = (
(707,655,o),
(579,728,o),
(427,729,cs),
(182,729,o),
(31,514,o),
(31,293,cs),
(31,112,o),
(134,-16,o),
(320,-16,cs),
(403,-16,o),
(475,21,o),
(520,80,c),
(515,0,l),
(637,0,l),
(711,384,l),
(418,384,l),
(393,255,l),
(524,255,l),
(524,255,l),
(507,176,o),
(448,126,o),
(361,126,cs),
(255,126,o),
(210,193,o),
(210,297,cs),
(210,440,o),
(280,584,o),
(419,584,cs),
(491,584,o),
(536,545,o),
(543,481,c),
(714,481,l)
);
}
);
width = 720;
}
);
note = G;
unicode = 71;
},
{
glyphname = H;
layers = (
{
hints = (
{
horizontal = 1;
place = (0, 21);
target = up;
type = BottomGhost;
},
{
horizontal = 1;
place = (299, 144);
place = (299, 144);
type = Stem;
},
{
horizontal = 1;
place = (715, -20);
target = down;
type = TopGhost;
},
{
place = (-2, 724);
place = (-2, 724);
type = Stem;
}
);
layerId = m01;
shapes = (
{
closed = 1;
nodes = (
(-2,0,l),
(173,0,l),
(230,299,l),
(467,299,l),
(410,0,l),
(584,0,l),
(722,715,l),
(548,715,l),
(495,443,l),
(258,443,l),
(311,715,l),
(136,715,l)
);
}
);
width = 682;
}
);
note = H;
unicode = 72;
},
{
glyphname = I;
layers = (
{
hints = (
{
horizontal = 1;
place = (0, 21);
target = up;
type = BottomGhost;
},
{
horizontal = 1;
place = (715, -20);
target = down;
type = TopGhost;
},
{
place = (-2, 313);
place = (-2, 313);
type = Stem;
}
);
layerId = m01;
shapes = (
{
closed = 1;
nodes = (
(-2,0,l),
(173,0,l),
(311,715,l),
(137,715,l)
);
}
);
width = 272;
}
);
note = I;
unicode = 73;
},
{
glyphname = J;
kernLeft = J;
kernRight = J;
lastChange = "2023-04-04 02:30:50 +0000";
layers = (
{
hints = (
{
horizontal = 1;
place = (-13, 145);
place = (-13, 145);
type = Stem;
},
{
horizontal = 1;
place = (715, -20);
target = down;
type = TopGhost;
},
{
place = (-2, 161);
place = (-2, 161);
type = Stem;
}
);
layerId = m01;
shapes = (
{
closed = 1;
nodes = (
(309,211,ls),
(300,162,o),
(278,132,o),
(228,132,cs),
(171,132,o),
(151,166,o),
(162,223,cs),
(173,278,l),
(14,278,l),
(4,230,ls),
(-30,60,o),
(79,-13,o),
(222,-13,cs),
(361,-13,o),
(453,53,o),
(480,194,cs),
(580,715,l),
(407,715,l)
);
}
);
width = 534;
}
);
note = J;
unicode = 74;
},
{
glyphname = K;
kernRight = K;
lastChange = "2023-04-04 02:34:15 +0000";
layers = (
{
hints = (
{
horizontal = 1;
place = (0, 21);
target = up;
type = BottomGhost;
},
{
horizontal = 1;
place = (715, -20);
target = down;
type = TopGhost;
},
{
place = (-2, 749);
place = (-2, 749);
type = Stem;
}
);
layerId = m01;
shapes = (
{
closed = 1;
nodes = (
(-2,0,l),
(173,0,l),
(220,243,l),
(298,314,l),
(441,0,l),
(632,0,l),
(433,428,l),
(747,715,l),
(540,715,l),
(260,451,l),
(311,715,l),
(136,715,l)
);
}
);
width = 675;
}
);
note = K;
unicode = 75;
},
{
glyphname = L;
kernRight = L;
layers = (
{
hints = (
{
horizontal = 1;
place = (0, 149);
place = (0, 149);
type = Stem;
},
{
horizontal = 1;
place = (715, -20);
target = down;
type = TopGhost;
},
{
place = (-2, 511);
place = (-2, 511);
type = Stem;
}
);
layerId = m01;
shapes = (
{
closed = 1;
nodes = (
(-2,0,l),
(481,0,l),
(509,149,l),
(201,149,l),
(311,715,l),
(136,715,l)
);
}
);
width = 546;
}
);
note = L;
unicode = 76;
},
{
glyphname = M;
lastChange = "2023-04-04 02:45:13 +0000";
layers = (
{
hints = (
{
horizontal = 1;
place = (0, 21);
target = up;
type = BottomGhost;
},
{
horizontal = 1;
place = (715, -20);
target = down;
type = TopGhost;
},
{
place = (-2, 860);
place = (-2, 860);
type = Stem;
}
);
layerId = m01;
shapes = (
{
closed = 1;
nodes = (
(-2,0,l),
(154,0,l),
(249,504,l),
(251,504,l),
(286,0,l),
(430,0,l),
(659,504,l),
(661,504,l),
(560,0,l),
(720,0,l),
(858,715,l),
(618,715,l),
(404,237,l),
(403,237,l),
(368,715,l),
(136,715,l)
);
}
);
width = 821;
}
);
note = M;
unicode = 77;
},
{
glyphname = N;
lastChange = "2023-04-04 02:46:14 +0000";
layers = (
{
hints = (
{
horizontal = 1;
place = (0, 21);
target = up;
type = BottomGhost;
},
{
horizontal = 1;
place = (715, -20);
target = down;
type = TopGhost;
},
{
place = (-2, 729);
place = (-2, 729);
type = Stem;
}
);
layerId = m01;
shapes = (
{
closed = 1;
nodes = (
(-2,0,l),
(167,0,l),
(255,455,l),
(257,455,l),
(414,0,l),
(589,0,l),
(727,715,l),
(558,715,l),
(470,263,l),
(468,263,l),
(311,715,l),
(136,715,l)
);
}
);
width = 687;
}
);
note = N;
unicode = 78;
},
{
glyphname = O;
kernLeft = C;
kernRight = O;
lastChange = "2023-04-04 19:54:06 +0000";
layers = (
{
hints = (
{
horizontal = 1;
place = (-17, 143);
place = (-17, 143);
type = Stem;
},
{
horizontal = 1;
place = (587, 142);
place = (587, 142);
type = Stem;
},
{
place = (32, 177);
place = (32, 177);
type = Stem;
},
{
place = (556, 177);
place = (556, 177);
type = Stem;
}
);
layerId = m01;
shapes = (
{
closed = 1;
nodes = (
(178,729,o),
(33,527,o),
(32,295,cs),
(31,93,o),
(169,-17,o),
(354,-17,cs),
(592,-16,o),
(733,184,o),
(733,411,cs),
(733,610,o),
(607,729,o),
(416,729,cs)
);
},
{
closed = 1;
nodes = (
(514,587,o),
(556,509,o),
(556,409,cs),
(556,281,o),
(501,126,o),
(359,126,cs),
(251,126,o),
(209,203,o),
(209,297,cs),
(209,427,o),
(266,586,o),
(408,587,cs)
);
}
);
width = 727;
}
);
note = O;
unicode = 79;
},
{
glyphname = P;
kernRight = P;
lastChange = "2023-04-04 19:54:08 +0000";
layers = (
{
hints = (
{
horizontal = 1;
place = (0, 21);
target = up;
type = BottomGhost;
},
{
horizontal = 1;
place = (239, 139);
place = (239, 139);
type = Stem;
},
{
horizontal = 1;
place = (567, 148);
place = (567, 148);
type = Stem;
},
{
place = (489, 176);
place = (489, 176);
type = Stem;
}
);
layerId = m01;
shapes = (
{
closed = 1;
nodes = (
(-2,0,l),
(175,0,l),
(221,239,l),
(392,239,ls),
(552,239,o),
(665,337,o),
(665,498,cs),
(665,643,o),
(564,715,o),
(417,715,cs),
(136,715,l)
);
},
{
closed = 1;
nodes = (
(401,567,ls),
(459,567,o),
(489,539,o),
(489,486,cs),
(489,412,o),
(436,378,o),
(377,378,cs),
(248,378,l),
(285,567,l)
);
}
);
width = 638;
}
);
note = P;
unicode = 80;
},
{
glyphname = Q;
kernLeft = C;
kernRight = Q;
lastChange = "2023-04-04 19:54:10 +0000";
layers = (
{
hints = (
{
horizontal = 1;
place = (-17, 142);
place = (-17, 142);
type = Stem;
},
{
horizontal = 1;
place = (587, 142);
place = (587, 142);
type = Stem;
},
{
place = (32, 177);
place = (32, 177);
type = Stem;
},
{
place = (556, 177);
place = (556, 177);
type = Stem;
}
);
layerId = m01;
shapes = (
{
closed = 1;
nodes = (
(176,729,o),
(33,527,o),
(32,295,cs),
(31,93,o),
(169,-17,o),
(354,-17,cs),
(416,-16,o),
(472,-2,o),
(521,22,c),
(598,-55,l),
(686,32,l),
(620,97,l),
(693,177,o),
(733,290,o),
(733,411,cs),
(733,610,o),
(607,729,o),
(414,729,cs)
);
},
{
closed = 1;
nodes = (
(514,587,o),
(556,509,o),
(556,409,cs),
(556,334,o),
(543,260,o),
(510,207,c),
(435,282,l),
(346,197,l),
(411,131,l),
(395,127,o),
(378,125,o),
(359,125,cs),
(251,125,o),
(209,203,o),
(209,297,cs),
(209,427,o),
(266,586,o),
(408,587,cs)
);
}
);
width = 727;
}
);
note = Q;
unicode = 81;
},
{
glyphname = R;
kernRight = R;
lastChange = "2023-04-04 19:54:12 +0000";
layers = (
{
hints = (
{
horizontal = 1;
place = (0, 9);
place = (0, 9);
type = Stem;
},
{
horizontal = 1;
place = (269, 129);
place = (269, 129);
type = Stem;
},
{
horizontal = 1;
place = (576, 139);
place = (576, 139);
type = Stem;
},
{
place = (432, 164);
place = (432, 164);
type = Stem;
},
{
place = (492, 175);
place = (492, 175);
type = Stem;
}
);
layerId = m01;
shapes = (
{
closed = 1;
nodes = (
(-2,0,l),
(173,0,l),
(224,269,l),
(334,269,ls),
(404,269,o),
(432,235,o),
(432,174,cs),
(432,134,o),
(428,86,o),
(428,50,cs),
(428,29,o),
(430,9,o),
(437,0,c),
(610,0,l),
(610,9,l),
(601,15,o),
(596,32,o),
(596,57,cs),
(596,103,o),
(601,159,o),
(601,195,cs),
(601,267,o),
(571,310,o),
(516,330,c),
(516,333,l),
(611,361,o),
(667,419,o),
(667,524,cs),
(667,646,o),
(572,715,o),
(432,715,cs),
(136,715,l)
);
},
{
closed = 1;
nodes = (
(405,576,ls),
(463,576,o),
(492,547,o),
(492,497,cs),
(492,427,o),
(440,398,o),
(379,398,cs),
(250,398,l),
(284,576,l)
);
}
);
width = 659;
}
);
note = R;
unicode = 82;
},
{
glyphname = S;
kernLeft = Scaron;
kernRight = Scaron;
lastChange = "2023-04-04 03:05:37 +0000";
layers = (
{
hints = (
{
horizontal = 1;
place = (-17, 139);
place = (-17, 139);
type = Stem;
},
{
horizontal = 1;
place = (595, 133);
place = (595, 133);
type = Stem;
},
{
place = (71, 168);
place = (71, 168);
type = Stem;
},
{
place = (421, 178);
place = (421, 178);
type = Stem;
}
);
layerId = m01;
shapes = (
{
closed = 1;
nodes = (
(627,674,o),
(484,728,o),
(345,728,cs),
(186,728,o),
(71,650,o),
(71,502,cs),
(71,386,o),
(152,340,o),
(280,295,cs),
(378,260,o),
(421,241,o),
(421,199,cs),
(421,141,o),
(365,122,o),
(306,122,cs),
(227,122,o),
(170,151,o),
(172,225,c),
(-3,225,l),
(-9,45,o),
(145,-17,o),
(301,-17,cs),
(463,-17,o),
(599,62,o),
(599,224,cs),
(599,342,o),
(513,393,o),
(392,435,cs),
(278,474,o),
(239,484,o),
(239,527,cs),
(240,577,o),
(294,595,o),
(339,595,cs),
(410,595,o),
(451,564,o),
(450,508,c),
(620,508,l)
);
}
);
width = 627;
}
);
note = S;
unicode = 83;
},
{
glyphname = T;
kernLeft = T;
kernRight = T;
lastChange = "2023-04-04 03:10:07 +0000";
layers = (
{
hints = (
{
horizontal = 1;
place = (0, 21);
target = up;
type = BottomGhost;
},
{
horizontal = 1;
place = (567, 148);
place = (567, 148);
type = Stem;
},
{
place = (75, 606);
place = (75, 606);
type = Stem;
}
);
layerId = m01;
shapes = (
{
closed = 1;
nodes = (
(75,567,l),
(276,567,l),
(166,0,l),
(340,0,l),
(450,567,l),
(653,567,l),
(681,715,l),
(103,715,l)
);
}
);
width = 608;
}
);
note = T;
unicode = 84;
},
{
glyphname = U;
kernLeft = U;
kernRight = U;
lastChange = "2023-04-04 03:10:11 +0000";
layers = (
{
hints = (
{
horizontal = 1;
place = (-13, 141);
place = (-13, 141);
type = Stem;
},
{
horizontal = 1;
place = (715, -20);
target = down;
type = TopGhost;
},
{
place = (38, 175);
place = (38, 175);
type = Stem;
}
);
layerId = m01;
shapes = (
{
closed = 1;
nodes = (
(45,274,ls),
(7,74,o),
(135,-13,o),
(319,-13,cs),
(495,-13,o),
(594,74,o),
(624,231,cs),
(718,715,l),
(544,715,l),
(452,240,ls),
(439,171,o),
(401,128,o),
(324,128,cs),
(234,128,o),
(201,177,o),
(216,256,cs),
(305,715,l),
(131,715,l)
);
}
);
width = 673;
}
);
note = U;
unicode = 85;
},
{
glyphname = V;
kernLeft = V;
kernRight = V;
lastChange = "2023-04-04 03:10:13 +0000";
layers = (
{
hints = (
{
horizontal = 1;
place = (0, 21);
target = up;
type = BottomGhost;
},
{
horizontal = 1;
place = (715, -20);
target = down;
type = TopGhost;
},
{
place = (85, 639);
place = (85, 639);
type = Stem;
}
);
layerId = m01;
shapes = (
{
closed = 1;
nodes = (
(186,0,l),
(366,0,l),
(724,715,l),
(545,715,l),
(316,213,l),
(314,213,l),
(264,715,l),
(85,715,l)
);
}
);
width = 635;
}
);
note = V;
unicode = 86;
},
{
glyphname = W;
kernLeft = W;
kernRight = W;
lastChange = "2023-04-04 03:10:50 +0000";
layers = (
{
hints = (
{
horizontal = 1;
place = (0, 21);
target = up;
type = BottomGhost;
},
{
horizontal = 1;
place = (715, -20);
target = down;
type = TopGhost;
},
{
place = (513, 126);
place = (513, 126);
type = Stem;
}
);
layerId = m01;
shapes = (
{
closed = 1;
nodes = (
(149,0,l),
(320,0,l),
(502,482,l),
(504,482,l),
(521,0,l),
(692,0,l),
(1005,715,l),
(828,715,l),
(642,235,l),
(640,235,l),
(624,715,l),
(463,715,l),
(278,235,l),
(276,235,l),
(261,715,l),
(87,715,l)
);
}
);
width = 921;
}
);
note = W;
unicode = 87;
},
{
glyphname = X;
kernLeft = X;
kernRight = X;
lastChange = "2023-04-04 04:43:10 +0000";
layers = (
{
hints = (
{
horizontal = 1;
place = (0, 21);
target = up;
type = BottomGhost;
},
{
horizontal = 1;
place = (715, -20);
target = down;
type = TopGhost;
},
{
place = (-51, 789);
place = (-51, 789);
type = Stem;
}
);
layerId = m01;
shapes = (
{
closed = 1;
nodes = (
(254,382,l),
(-51,0,l),
(153,0,l),
(334,245,l),
(336,245,l),
(425,0,l),
(624,0,l),
(463,368,l),
(738,715,l),
(542,715,l),
(383,502,l),
(381,502,l),
(298,715,l),
(106,715,l)
);
}
);
width = 673;
}
);
note = X;
unicode = 88;
},
{
glyphname = Y;
kernLeft = Yacute;
kernRight = Yacute;
lastChange = "2023-04-04 04:46:18 +0000";
layers = (
{
hints = (
{
horizontal = 1;
place = (0, 21);
target = up;
type = BottomGhost;
},
{
horizontal = 1;
place = (715, -20);
target = down;
type = TopGhost;
},
{
place = (86, 643);
place = (86, 643);
type = Stem;
}
);
layerId = m01;
shapes = (
{
closed = 1;
nodes = (
(231,267,l),
(180,0,l),
(355,0,l),
(405,261,l),
(729,715,l),
(540,715,l),
(348,422,l),
(346,422,l),
(269,715,l),
(86,715,l)
);
}
);
width = 639;
}
);
note = Y;
unicode = 89;
},
{
glyphname = Z;
kernLeft = Zcaron;
kernRight = Zcaron;
lastChange = "2023-04-04 04:54:29 +0000";
layers = (
{
hints = (
{
horizontal = 1;
place = (0, 147);
place = (0, 147);
type = Stem;
},
{
horizontal = 1;
place = (570, 145);
place = (570, 145);
type = Stem;
},
{
place = (-26, 706);
place = (-26, 706);
type = Stem;
}
);
layerId = m01;
shapes = (
{
closed = 1;
nodes = (
(109,570,l),
(430,571,l),
(430,568,l),
(0,137,l),
(-26,0,l),
(554,0,l),
(582,147,l),
(223,146,l),
(223,149,l),
(654,580,l),
(680,715,l),
(137,715,l)
);
}
);
width = 629;
}
);
note = Z;
unicode = 90;
},
{
glyphname = a;
kernLeft = a;
kernRight = a;
lastChange = "2023-04-04 20:23:51 +0000";
layers = (
{
hints = (
{
horizontal = 1;
place = (-13, 104);
place = (-13, 104);
type = Stem;
},
{
horizontal = 1;
place = (417, 109);
place = (417, 109);
type = Stem;
},
{
place = (-6, 155);
place = (-6, 155);
type = Stem;
},
{
place = (297, 154);
place = (297, 154);
type = Stem;
},
{
horizontal = 1;
place = (0, 91);
place = (0, 91);
type = Stem;
},
{
place = (354, 153);
place = (354, 153);
type = Stem;
}
);
layerId = m01;
shapes = (
{
closed = 1;
nodes = (
(199,350,l),
(210,395,o),
(241,417,o),
(290,417,cs),
(333,417,o),
(354,397,o),
(354,368,cs),
(354,318,o),
(313,312,o),
(212,305,cs),
(87,296,o),
(-6,260,o),
(-6,135,cs),
(-6,39,o),
(66,-13,o),
(155,-13,cs),
(215,-13,o),
(261,16,o),
(295,56,c),
(297,56,l),
(297,39,ls),
(297,32,o),
(298,25,o),
(299,18,cs),
(301,10,o),
(302,6,o),
(305,0,c),
(459,0,l),
(459,7,l),
(454,13,o),
(452,21,o),
(451,34,cs),
(451,46,o),
(452,61,o),
(456,80,cs),
(502,316,ls),
(530,460,o),
(445,526,o),
(298,526,cs),
(149,526,o),
(69,456,o),
(50,350,c)
);
},
{
closed = 1;
nodes = (
(322,178,ls),
(311,122,o),
(270,91,o),
(215,91,cs),
(176,91,o),
(149,109,o),
(149,149,cs),
(149,208,o),
(206,211,o),
(247,218,cs),
(285,224,o),
(311,230,o),
(334,241,c)
);
}
);
width = 528;
}
);
note = a;
unicode = 97;
},
{
glyphname = b;
kernLeft = b;
kernRight = thorn;
lastChange = "2023-04-04 19:54:18 +0000";
layers = (
{
hints = (
{
horizontal = 1;
place = (-16, 128);
place = (-16, 128);
type = Stem;
},
{
horizontal = 1;
place = (405, 122);
place = (405, 122);
type = Stem;
},
{
horizontal = 1;
place = (715, -20);
target = down;
type = TopGhost;
},
{
place = (400, 162);
place = (400, 162);
type = Stem;
},
{
horizontal = 1;
place = (0, 21);
target = up;
type = BottomGhost;
}
);
layerId = m01;
shapes = (
{
closed = 1;
nodes = (
(-12,0,l),
(142,0,l),
(156,76,l),
(158,76,l),
(186,10,o),
(248,-16,o),
(313,-16,cs),
(483,-16,o),
(562,153,o),
(562,307,cs),
(562,433,o),
(498,527,o),
(384,527,cs),
(322,527,o),
(276,499,o),
(239,457,c),
(236,457,l),
(286,715,l),
(126,715,l)
);
},
{
closed = 1;
nodes = (
(382,405,o),
(400,350,o),
(400,297,cs),
(400,215,o),
(368,112,o),
(281,112,cs),
(214,112,o),
(190,166,o),
(190,223,cs),
(190,303,o),
(230,405,o),
(318,405,cs)
);
}
);
width = 576;
}
);
note = b;
unicode = 98;
},
{
glyphname = c;
kernLeft = c;
kernRight = c;
lastChange = "2023-04-04 05:10:18 +0000";
layers = (
{
hints = (
{
horizontal = 1;
place = (-16, 121);
place = (-16, 121);
type = Stem;
},
{
horizontal = 1;
place = (407, 119);
place = (407, 119);
type = Stem;
},
{
place = (13, 160);
place = (13, 160);
type = Stem;
},
{
place = (374, 154);
place = (374, 154);
type = Stem;
}
);
layerId = m01;
shapes = (
{
closed = 1;
nodes = (
(523,468,o),
(427,526,o),
(304,526,cs),
(125,526,o),
(13,379,o),
(13,211,cs),
(13,51,o),
(126,-16,o),
(257,-16,cs),
(386,-15,o),
(487,61,o),
(513,194,c),
(360,194,l),
(344,133,o),
(306,105,o),
(260,105,cs),
(196,105,o),
(173,151,o),
(173,208,cs),
(173,294,o),
(211,407,o),
(300,407,cs),
(350,407,o),
(370,375,o),
(374,330,c),
(528,330,l)
);
}
);
width = 532;
}
);
note = c;
unicode = 99;
},
{
glyphname = d;
kernLeft = d;
kernRight = d;
lastChange = "2023-04-04 19:54:22 +0000";
layers = (
{
hints = (
{
horizontal = 1;
place = (-16, 126);
place = (-16, 126);
type = Stem;
},
{
horizontal = 1;
place = (405, 122);
place = (405, 122);
type = Stem;
},
{
horizontal = 1;
place = (715, -20);
target = down;
type = TopGhost;
},
{
place = (14, 165);
place = (14, 165);
type = Stem;
},
{
horizontal = 1;
place = (0, 110);
place = (0, 110);
type = Stem;
}
);
layerId = m01;
shapes = (
{
closed = 1;
nodes = (
(420,446,l),
(417,446,l),
(389,497,o),
(342,527,o),
(273,527,cs),
(107,527,o),
(14,366,o),
(14,208,cs),
(13,72,o),
(89,-16,o),
(205,-16,cs),
(268,-16,o),
(317,15,o),
(350,59,c),
(352,59,l),
(341,0,l),
(494,0,l),
(632,715,l),
(472,715,l)
);
},
{
closed = 1;
nodes = (
(366,405,o),
(392,351,o),
(392,290,cs),
(392,210,o),
(350,110,o),
(265,110,cs),
(200,110,o),
(179,162,o),
(179,220,cs),
(179,301,o),
(216,405,o),
(302,405,cs)
);
}
);
width = 582;
}
);
note = d;
unicode = 100;
},
{
glyphname = e;
kernLeft = c;
kernRight = e;
lastChange = "2023-04-04 19:54:25 +0000";
layers = (
{
hints = (
{
horizontal = 1;
place = (-15, 116);
place = (-15, 116);
type = Stem;
},
{
horizontal = 1;
place = (214, 97);
place = (214, 97);
type = Stem;
},
{
horizontal = 1;
place = (412, 115);
place = (412, 115);
type = Stem;
},
{
place = (13, 158);
place = (13, 158);
type = Stem;
},
{
place = (376, 152);
place = (376, 152);
type = Stem;
},
{
horizontal = 1;
place = (-15, 168);
place = (-15, 168);
type = Stem;
}
);
layerId = m01;
shapes = (
{
closed = 1;
nodes = (
(549,397,o),
(481,527,o),
(296,527,cs),
(127,527,o),
(13,382,o),
(13,221,cs),
(13,64,o),
(118,-15,o),
(257,-15,cs),
(389,-15,o),
(478,54,o),
(510,153,c),
(352,153,l),
(336,117,o),
(303,101,o),
(264,101,cs),
(191,101,o),
(172,150,o),
(171,214,c),
(522,214,l)
);
},
{
closed = 1;
nodes = (
(184,311,l),
(202,374,o),
(243,412,o),
(294,412,cs),
(355,412,o),
(378,366,o),
(376,311,c)
);
}
);
width = 543;
}
);
note = e;
unicode = 101;
},
{
glyphname = f;
kernLeft = f;
kernRight = f;
lastChange = "2023-04-04 05:31:27 +0000";
layers = (
{
hints = (
{
horizontal = 1;
place = (0, 21);
target = up;
type = BottomGhost;
},
{
horizontal = 1;
place = (408, 104);
place = (408, 104);
type = Stem;
},
{
horizontal = 1;
place = (599, 117);
place = (599, 117);
type = Stem;
},
{
place = (25, 390);
place = (25, 390);
type = Stem;
}
);
layerId = m01;
shapes = (
{
closed = 1;
nodes = (
(39,408,l),
(104,408,l),
(25,0,l),
(184,0,l),
(263,408,l),
(356,408,l),
(377,512,l),
(283,512,l),
(289,542,ls),
(297,587,o),
(322,599,o),
(361,599,cs),
(371,599,o),
(381,598,o),
(393,597,c),
(415,710,l),
(389,714,o),
(362,716,o),
(333,716,cs),
(219,716,o),
(156,672,o),
(133,560,cs),
(124,512,l),
(59,512,l)
);
}
);
width = 341;
}
);
note = f;
unicode = 102;
},
{
glyphname = g;
kernLeft = g;
kernRight = g;
lastChange = "2023-04-04 19:54:28 +0000";
layers = (
{
hints = (
{
horizontal = 1;
place = (-177, 114);
place = (-177, 114);
type = Stem;
},
{
horizontal = 1;
place = (28, 119);
place = (28, 119);
type = Stem;
},
{
horizontal = 1;
place = (406, 121);
place = (406, 121);
type = Stem;
},
{
place = (15, 158);
place = (15, 158);
type = Stem;
},
{
horizontal = 1;
place = (406, 106);
place = (406, 106);
type = Stem;
},
{
horizontal = 1;
place = (-177, 165);
place = (-177, 165);
type = Stem;
}
);
layerId = m01;
shapes = (
{
closed = 1;
nodes = (
(408,449,l),
(406,449,l),
(377,502,o),
(325,527,o),
(261,527,cs),
(107,527,o),
(15,379,o),
(15,234,cs),
(15,112,o),
(95,28,o),
(205,28,cs),
(260,29,o),
(297,51,o),
(329,84,c),
(332,84,l),
(322,32,ls),
(311,-26,o),
(282,-63,o),
(223,-63,cs),
(180,-63,o),
(154,-45,o),
(147,-12,c),
(-11,-12,l),
(3,-130,o),
(109,-177,o),
(219,-177,cs),
(364,-177,o),
(452,-111,o),
(480,31,cs),
(573,512,l),
(420,512,l)
);
},
{
closed = 1;
nodes = (
(351,406,o),
(378,359,o),
(379,303,cs),
(379,227,o),
(335,147,o),
(258,147,cs),
(199,147,o),
(173,193,o),
(173,248,cs),
(173,327,o),
(215,406,o),
(292,406,cs)
);
}
);
width = 562;
}
);
note = g;
unicode = 103;
},
{
glyphname = h;
kernLeft = b;
kernRight = h;
layers = (
{
hints = (
{
horizontal = 1;
place = (0, 21);
target = up;
type = BottomGhost;
},
{
horizontal = 1;
place = (395, 132);
place = (395, 132);
type = Stem;
},
{
horizontal = 1;
place = (715, -20);
target = down;
type = TopGhost;
},
{
place = (373, 164);
place = (373, 164);
type = Stem;
}
);
layerId = m01;
shapes = (
{
closed = 1;
nodes = (
(-12,0,l),
(148,0,l),
(202,281,ls),
(215,345,o),
(254,395,o),
(310,395,cs),
(363,395,o),
(381,359,o),
(370,303,cs),
(311,0,l),
(471,0,l),
(532,315,ls),
(557,447,o),
(497,527,o),
(394,527,cs),
(321,527,o),
(275,494,o),
(236,442,c),
(233,442,l),
(286,715,l),
(126,715,l)
);
}
);
width = 556;
}
);
note = h;
unicode = 104;
},
{
glyphname = i;
kernLeft = b;
kernRight = d;
layers = (
{
hints = (
{
horizontal = 1;
place = (0, 21);
target = up;
type = BottomGhost;
},
{
horizontal = 1;
place = (512, -20);
target = down;
type = TopGhost;
},
{
horizontal = 1;
place = (583, 132);
place = (583, 132);
type = Stem;
},
{
place = (-12, 298);
place = (-12, 298);
type = Stem;
}
);
layerId = m01;
shapes = (
{
closed = 1;
nodes = (
(-12,0,l),
(148,0,l),
(247,512,l),
(87,512,l)
);
},
{
closed = 1;
nodes = (
(101,583,l),
(261,583,l),
(286,715,l),
(126,715,l)
);
}
);
width = 237;
}
);
note = i;
unicode = 105;
},
{
glyphname = j;
kernLeft = j;
kernRight = j;
lastChange = "2023-04-04 05:41:42 +0000";
layers = (
{
hints = (
{
horizontal = 1;
place = (-172, 123);
place = (-172, 123);
type = Stem;
},
{
horizontal = 1;
place = (512, -20);
target = down;
type = TopGhost;
},
{
horizontal = 1;
place = (583, 132);
place = (583, 132);
type = Stem;
},
{
place = (-124, 410);
place = (-124, 410);
type = Stem;
}
);
layerId = m01;
shapes = (
{
closed = 1;
nodes = (
(-14,-4,ls),
(-21,-42,o),
(-42,-50,o),
(-77,-50,cs),
(-85,-50,o),
(-94,-50,o),
(-103,-49,c),
(-124,-162,l),
(-98,-169,o),
(-69,-172,o),
(-38,-172,cs),
(70,-172,o),
(122,-126,o),
(144,-20,cs),
(247,512,l),
(87,512,l)
);
},
{
closed = 1;
nodes = (
(101,583,l),
(261,583,l),
(286,715,l),
(126,715,l)
);
}
);
width = 237;
}
);
note = j;
unicode = 106;
},
{
glyphname = k;
kernLeft = b;
kernRight = k;
layers = (
{
hints = (
{
horizontal = 1;
place = (0, 21);
target = up;
type = BottomGhost;
},
{
horizontal = 1;
place = (512, -20);
target = down;
type = TopGhost;
},
{
horizontal = 1;
place = (715, -20);
target = down;
type = TopGhost;
},
{
place = (-12, 584);
place = (-12, 584);
type = Stem;
}
);
layerId = m01;
shapes = (
{
closed = 1;
nodes = (
(-12,0,l),
(146,0,l),
(175,149,l),
(239,209,l),
(321,0,l),
(497,0,l),
(364,315,l),
(572,512,l),
(386,512,l),
(210,332,l),
(284,715,l),
(126,715,l)
);
}
);
width = 540;
}
);
note = k;
unicode = 107;
},
{
glyphname = l;
kernLeft = b;
kernRight = d;
layers = (
{
hints = (
{
horizontal = 1;
place = (0, 21);
target = up;
type = BottomGhost;
},
{
horizontal = 1;
place = (715, -20);
target = down;
type = TopGhost;
},
{
place = (-11, 301);
place = (-11, 301);
type = Stem;
}
);
layerId = m01;
shapes = (
{
closed = 1;
nodes = (
(-11,0,l),
(152,0,l),
(290,715,l),
(127,715,l)
);
}
);
width = 241;
}
);
note = l;
unicode = 108;
},
{
glyphname = m;
kernLeft = m;
kernRight = h;
layers = (
{
hints = (
{
horizontal = 1;
place = (0, 21);
target = up;
type = BottomGhost;
},
{
horizontal = 1;
place = (395, 117);
place = (395, 117);
type = Stem;
},
{
place = (662, 164);
place = (662, 164);
type = Stem;
},
{
horizontal = 1;
place = (395, 132);
place = (395, 132);
type = Stem;
}
);
layerId = m01;
shapes = (
{
closed = 1;
nodes = (
(-12,0,l),
(148,0,l),
(202,279,ls),
(215,349,o),
(249,395,o),
(301,395,cs),
(348,395,o),
(364,360,o),
(353,305,cs),
(294,0,l),
(454,0,l),
(508,279,ls),
(521,351,o),
(555,395,o),
(607,395,cs),
(654,395,o),
(670,361,o),
(659,305,cs),
(600,0,l),
(760,0,l),
(820,311,ls),
(846,443,o),
(790,527,o),
(682,527,cs),
(616,527,o),
(559,499,o),
(512,432,c),
(510,432,l),
(492,489,o),
(452,527,o),
(384,527,cs),
(314,527,o),
(268,491,o),
(229,435,c),
(226,435,l),
(241,512,l),
(87,512,l)
);
}
);
width = 845;
}
);
note = m;
unicode = 109;
},
{
glyphname = n;
kernLeft = m;
kernRight = h;
layers = (
{
hints = (
{
horizontal = 1;
place = (0, 21);
target = up;
type = BottomGhost;
},
{
horizontal = 1;
place = (395, 117);
place = (395, 117);
type = Stem;
},
{
place = (373, 164);
place = (373, 164);
type = Stem;
},
{
horizontal = 1;
place = (395, 132);
place = (395, 132);
type = Stem;
}
);
layerId = m01;
shapes = (
{
closed = 1;
nodes = (
(-12,0,l),
(148,0,l),
(202,281,ls),
(215,345,o),
(255,395,o),
(310,395,cs),
(363,395,o),
(381,359,o),
(370,303,cs),
(311,0,l),
(471,0,l),
(532,315,ls),
(557,447,o),
(497,527,o),
(394,527,cs),
(321,527,o),
(270,490,o),
(229,431,c),
(226,431,l),
(242,512,l),
(87,512,l)
);
}
);
width = 556;
}
);
note = n;
unicode = 110;
},
{
glyphname = o;
kernLeft = c;
kernRight = o;
lastChange = "2023-04-04 19:54:31 +0000";
layers = (
{
hints = (
{
horizontal = 1;
place = (-16, 114);
place = (-16, 114);
type = Stem;
},
{
horizontal = 1;
place = (412, 114);
place = (412, 114);
type = Stem;
},
{
place = (13, 161);
place = (13, 161);
type = Stem;
},
{
place = (391, 162);
place = (391, 162);
type = Stem;
}
);
layerId = m01;
shapes = (
{
closed = 1;
nodes = (
(128,526,o),
(13,387,o),
(13,219,cs),
(13,61,o),
(130,-16,o),
(260,-16,cs),
(439,-16,o),
(553,123,o),
(553,293,cs),
(552,450,o),
(437,526,o),
(306,526,cs)
);
},
{
closed = 1;
nodes = (
(367,412,o),
(391,357,o),
(391,298,cs),
(392,214,o),
(356,98,o),
(263,98,cs),
(197,98,o),
(174,151,o),
(174,212,cs),
(173,294,o),
(209,412,o),
(301,412,cs)
);
}
);
width = 567;
}
);
note = o;
unicode = 111;
},
{
glyphname = p;
kernLeft = p;
kernRight = thorn;
lastChange = "2023-04-04 19:54:33 +0000";
layers = (
{
hints = (
{
horizontal = 1;
place = (-169, 21);
target = up;
type = BottomGhost;
},
{
horizontal = 1;
place = (-16, 122);
place = (-16, 122);
type = Stem;
},
{
horizontal = 1;
place = (400, 112);
place = (400, 112);
type = Stem;
},
{
place = (401, 164);
place = (401, 164);
type = Stem;
},
{
horizontal = 1;
place = (400, 127);
place = (400, 127);
type = Stem;
}
);
layerId = m01;
shapes = (
{
closed = 1;
nodes = (
(-45,-169,l),
(115,-169,l),
(161,67,l),
(164,67,l),
(193,11,o),
(248,-16,o),
(314,-16,cs),
(488,-16,o),
(565,153,o),
(565,304,cs),
(565,431,o),
(501,527,o),
(387,527,cs),
(320,527,o),
(268,494,o),
(230,446,c),
(228,446,l),
(240,512,l),
(87,512,l)
);
},
{
closed = 1;
nodes = (
(381,400,o),
(401,345,o),
(401,292,cs),
(401,211,o),
(368,106,o),
(279,106,cs),
(213,106,o),
(188,162,o),
(188,217,cs),
(188,299,o),
(233,400,o),
(317,400,cs)
);
}
);
width = 578;
}
);
note = p;
unicode = 112;
},
{
glyphname = q;
kernLeft = d;
kernRight = q;
lastChange = "2023-04-04 19:54:35 +0000";
layers = (
{
hints = (
{
horizontal = 1;
place = (-169, 21);
target = up;
type = BottomGhost;
},
{
horizontal = 1;
place = (-16, 125);
place = (-16, 125);
type = Stem;
},
{
horizontal = 1;
place = (402, 125);
place = (402, 125);
type = Stem;
},
{
place = (13, 163);
place = (13, 163);
type = Stem;
},
{
horizontal = 1;
place = (512, -20);
target = down;
type = TopGhost;
}
);
layerId = m01;
shapes = (
{
closed = 1;
nodes = (
(438,512,l),
(424,440,l),
(421,440,l),
(395,496,o),
(341,527,o),
(276,527,cs),
(109,527,o),
(13,362,o),
(13,202,cs),
(13,65,o),
(85,-16,o),
(200,-16,cs),
(258,-16,o),
(308,13,o),
(340,56,c),
(342,56,l),
(299,-169,l),
(459,-169,l),
(591,512,l)
);
},
{
closed = 1;
nodes = (
(364,402,o),
(390,351,o),
(390,288,cs),
(390,201,o),
(343,109,o),
(259,109,cs),
(194,109,o),
(176,160,o),
(176,217,cs),
(176,301,o),
(214,402,o),
(302,402,cs)
);
}
);
width = 580;
}
);
note = q;
unicode = 113;
},
{
glyphname = r;
kernLeft = m;
kernRight = r;
lastChange = "2023-04-04 06:03:14 +0000";
layers = (
{
hints = (
{
horizontal = 1;
place = (0, 21);
target = up;
type = BottomGhost;
},
{
horizontal = 1;
place = (375, 137);
place = (375, 137);
type = Stem;
},
{
place = (-12, 423);
place = (-12, 423);
type = Stem;
},
{
horizontal = 1;
place = (516, -20);
target = down;
type = TopGhost;
},
{
horizontal = 1;
place = (375, 145);
place = (375, 145);
type = Stem;
}
);
layerId = m01;
shapes = (
{
closed = 1;
nodes = (
(-12,0,l),
(148,0,l),
(191,224,ls),
(212,330,o),
(261,374,o),
(339,375,cs),
(352,375,o),
(366,374,o),
(383,372,c),
(411,516,l),
(405,518,o),
(392,520,o),
(375,520,cs),
(311,520,o),
(264,488,o),
(227,428,c),
(224,428,l),
(241,512,l),
(87,512,l)
);
}
);
width = 376;
}
);
note = r;
unicode = 114;
},
{
glyphname = s;
kernLeft = scaron;
kernRight = scaron;
lastChange = "2023-04-04 06:05:07 +0000";
layers = (
{
hints = (
{
horizontal = 1;
place = (-16, 107);
place = (-16, 107);
type = Stem;
},
{
horizontal = 1;
place = (423, 104);
place = (423, 104);
type = Stem;
},
{
place = (37, 148);
place = (37, 148);
type = Stem;
},
{
place = (303, 151);
place = (303, 151);
type = Stem;
},
{
horizontal = 1;
place = (363, 164);
place = (363, 164);
type = Stem;
}
);
layerId = m01;
shapes = (
{
closed = 1;
nodes = (
(469,479,o),
(371,527,o),
(258,527,cs),
(131,527,o),
(37,467,o),
(37,356,cs),
(37,265,o),
(103,230,o),
(189,205,cs),
(257,185,o),
(303,176,o),
(303,140,cs),
(303,105,o),
(274,91,o),
(232,91,cs),
(169,91,o),
(145,124,o),
(142,166,c),
(-10,166,l),
(-5,38,o),
(109,-16,o),
(229,-16,cs),
(368,-16,o),
(454,47,o),
(454,166,cs),
(454,262,o),
(376,297,o),
(296,320,cs),
(224,340,o),
(185,350,o),
(185,380,cs),
(185,411,o),
(219,423,o),
(252,423,cs),
(298,423,o),
(325,399,o),
(329,363,c),
(476,363,l)
);
}
);
width = 491;
}
);
note = s;
unicode = 115;
},
{
glyphname = t;
kernLeft = t;
kernRight = t;
lastChange = "2023-04-04 06:05:44 +0000";
layers = (
{
hints = (
{
horizontal = 1;
place = (-6, 123);
place = (-6, 123);
type = Stem;
},
{
horizontal = 1;
place = (410, 102);
place = (410, 102);
type = Stem;
},
{
place = (50, 165);
place = (50, 165);
type = Stem;
}
);
layerId = m01;
shapes = (
{
closed = 1;
nodes = (
(40,410,l),
(105,410,l),
(55,152,ls),
(33,43,o),
(82,-6,o),
(196,-6,cs),
(230,-6,o),
(262,-1,o),
(273,3,c),
(296,119,l),
(290,118,o),
(270,117,o),
(258,117,cs),
(220,117,o),
(208,131,o),
(215,171,cs),
(261,410,l),
(352,410,l),
(372,512,l),
(281,512,l),
(313,674,l),
(156,674,l),
(125,512,l),
(60,512,l)
);
}
);
width = 343;
}
);
note = t;
unicode = 116;
},
{
glyphname = u;
kernLeft = u;
kernRight = u;
lastChange = "2023-04-04 06:08:02 +0000";
layers = (
{
hints = (
{
horizontal = 1;
place = (-15, 132);
place = (-15, 132);
type = Stem;
},
{
horizontal = 1;
place = (512, -20);
target = down;
type = TopGhost;
},
{
place = (14, 166);
place = (14, 166);
type = Stem;
},
{
horizontal = 1;
place = (0, 117);
place = (0, 117);
type = Stem;
}
);
layerId = m01;
shapes = (
{
closed = 1;
nodes = (
(20,192,ls),
(-6,61,o),
(55,-15,o),
(163,-15,cs),
(234,-15,o),
(283,21,o),
(321,77,c),
(324,77,l),
(309,0,l),
(462,0,l),
(561,512,l),
(401,512,l),
(347,229,ls),
(333,159,o),
(294,117,o),
(239,117,cs),
(186,117,o),
(172,156,o),
(183,214,cs),
(241,512,l),
(81,512,l)
);
}
);
width = 551;
}
);
note = u;
unicode = 117;
},
{
glyphname = v;
kernLeft = v;
kernRight = v;
lastChange = "2023-04-04 06:09:48 +0000";
layers = (
{
hints = (
{
horizontal = 1;
place = (0, 21);
target = up;
type = BottomGhost;
},
{
horizontal = 1;
place = (512, -20);
target = down;
type = TopGhost;
},
{
place = (48, 518);
place = (48, 518);
type = Stem;
}
);
layerId = m01;
shapes = (
{
closed = 1;
nodes = (
(131,0,l),
(304,0,l),
(566,512,l),
(404,512,l),
(249,176,l),
(248,176,l),
(211,512,l),
(48,512,l)
);
}
);
width = 516;
}
);
note = v;
unicode = 118;
},
{
glyphname = w;
kernLeft = w;
kernRight = w;
lastChange = "2023-04-04 06:10:26 +0000";
layers = (
{
hints = (
{
horizontal = 1;
place = (0, 21);
target = up;
type = BottomGhost;
},
{
horizontal = 1;
place = (512, -20);
target = down;
type = TopGhost;
},
{
place = (49, 767);
place = (49, 767);
type = Stem;
}
);
layerId = m01;
shapes = (
{
closed = 1;
nodes = (
(109,0,l),
(258,0,l),
(398,333,l),
(400,333,l),
(427,0,l),
(576,0,l),
(816,512,l),
(655,512,l),
(524,196,l),
(522,196,l),
(498,512,l),
(363,512,l),
(230,197,l),
(228,197,l),
(209,512,l),
(49,512,l)
);
}
);
width = 769;
}
);
note = w;
unicode = 119;
},
{
glyphname = x;
kernLeft = x;
kernRight = x;
lastChange = "2023-04-04 06:14:14 +0000";
layers = (
{
hints = (
{
horizontal = 1;
place = (0, 21);
target = up;
type = BottomGhost;
},
{
horizontal = 1;
place = (512, -20);
target = down;
type = TopGhost;
},
{
place = (-50, 621);
place = (-50, 621);
type = Stem;
}
);
layerId = m01;
shapes = (
{
closed = 1;
nodes = (
(177,273,l),
(-50,0,l),
(133,0,l),
(251,160,l),
(253,160,l),
(311,0,l),
(489,0,l),
(369,260,l),
(571,512,l),
(393,512,l),
(295,368,l),
(293,368,l),
(243,512,l),
(67,512,l)
);
}
);
width = 543;
}
);
note = x;
unicode = 120;
},
{
glyphname = y;
kernLeft = yacute;
kernRight = yacute;
lastChange = "2023-04-04 06:17:28 +0000";
layers = (
{
hints = (
{
horizontal = 1;
place = (-169, 126);
place = (-169, 126);
type = Stem;
},
{
horizontal = 1;
place = (512, -20);
target = down;
type = TopGhost;
},
{
place = (-15, 584);
place = (-15, 584);
type = Stem;
}
);
layerId = m01;
shapes = (
{
closed = 1;
nodes = (
(126,118,ls),
(134,80,o),
(139,50,o),
(139,30,cs),
(139,-22,o),
(109,-43,o),
(64,-43,cs),
(46,-43,o),
(28,-43,o),
(10,-43,c),
(-15,-169,l),
(21,-169,o),
(57,-169,o),
(93,-169,cs),
(193,-169,o),
(249,-125,o),
(299,-26,cs),
(569,512,l),
(408,512,l),
(257,172,l),
(255,172,l),
(215,512,l),
(48,512,l)
);
}
);
width = 521;
}
);
note = y;
unicode = 121;
},
